<?xml version="1.0" standalone="no"?>
<!DOCTYPE svg PUBLIC "-//W3C//DTD SVG 20010904//EN"
 "http://www.w3.org/TR/2001/REC-SVG-20010904/DTD/svg10.dtd">
<svg version="1.0" xmlns="http://www.w3.org/2000/svg"
 width="107.000000pt" height="107.000000pt" viewBox="0 0 107.000000 107.000000"
 preserveAspectRatio="xMidYMid meet">
<metadata>
Created by potrace 1.11, written by Peter Selinger 2001-2013
</metadata>
<g transform="translate(0.000000,107.000000) scale(0.100000,-0.100000)"
fill="#000000" stroke="none">
<path d="M475 989 l-47 -72 22 -40 c32 -55 35 -95 10 -135 -32 -51 -76 -74
-136 -69 -84 6 -140 69 -128 144 11 63 11 63 -54 100 l-62 35 59 -169 c67
-191 79 -223 84 -223 2 0 31 14 65 30 153 77 346 76 491 -2 30 -16 57 -26 62
-21 8 8 139 376 135 380 -1 1 -30 -14 -64 -33 -61 -35 -63 -37 -56 -67 15 -62
7 -99 -29 -135 -57 -56 -138 -57 -202 -1 -49 43 -55 85 -20 153 l27 53 -48 72
c-26 39 -50 71 -54 71 -4 0 -28 -32 -55 -71z m73 -258 c21 -13 11 -55 -14 -59
-28 -4 -44 17 -33 46 9 23 25 28 47 13z"/>
<path d="M290 890 c-22 -47 -22 -50 -5 -76 9 -15 17 -44 17 -65 -1 -27 4 -39
14 -40 8 -1 20 -2 27 -3 37 -6 73 33 46 50 -7 4 -9 25 -5 58 6 44 3 54 -16 76
-49 54 -53 54 -78 0z"/>
<path d="M707 899 c-39 -45 -39 -46 -26 -83 11 -29 10 -38 -4 -60 -16 -24 -16
-26 2 -36 11 -5 31 -10 45 -10 24 0 26 4 26 40 0 23 7 52 16 65 15 23 15 28
-2 70 -11 25 -21 45 -24 45 -3 0 -18 -14 -33 -31z"/>
<path d="M463 560 c-228 -47 -296 -345 -112 -490 202 -160 496 19 444 270 -14
68 -34 106 -77 146 -67 64 -165 92 -255 74z"/>
</g>
</svg>
